<?xml version="1.0" standalone="no"?>
<!DOCTYPE svg PUBLIC "-//W3C//DTD SVG 20010904//EN"
 "http://www.w3.org/TR/2001/REC-SVG-20010904/DTD/svg10.dtd">
<svg version="1.0" xmlns="http://www.w3.org/2000/svg"
 width="458.000000pt" height="283.000000pt" viewBox="0 0 458.000000 283.000000"
 preserveAspectRatio="xMidYMid meet">

<g transform="translate(0.000000,283.000000) scale(0.100000,-0.100000)"
fill="#000000" stroke="none">
<path d="M2145 2516 c-11 -7 -35 -22 -52 -32 l-33 -20 68 -38 c37 -21 77 -48
90 -60 13 -11 26 -19 29 -17 3 2 43 -18 89 -44 l84 -49 0 -213 c0 -117 3 -213
8 -213 4 0 17 7 28 15 12 8 24 11 28 8 3 -3 6 -2 6 3 0 5 14 18 30 28 l30 17
-2 212 -3 211 -179 103 c-98 57 -183 103 -190 102 -6 0 -20 -6 -31 -13z"/>
<path d="M1885 2365 c-49 -30 -96 -54 -102 -55 -7 0 -13 -4 -13 -8 0 -9 -37
-29 -54 -30 -5 0 -12 -4 -15 -9 -3 -5 -23 -19 -43 -32 l-38 -23 0 -69 0 -70
42 23 c23 13 48 29 56 36 7 7 17 10 22 7 5 -3 10 -1 12 4 4 11 225 141 240
141 7 0 89 -45 183 -100 95 -55 175 -100 179 -100 3 0 6 30 6 68 l-1 67 -178
103 c-98 56 -184 102 -192 101 -8 0 -54 -25 -104 -54z"/>
<path d="M2609 2107 c0 -94 0 -191 1 -213 1 -32 -3 -43 -17 -48 -10 -4 -20 -7
-22 -6 -2 1 -7 -3 -10 -8 -3 -5 -71 -47 -151 -92 -80 -46 -149 -87 -153 -90
-9 -8 91 -70 111 -70 6 0 45 20 87 45 42 25 82 46 88 48 6 1 17 7 24 13 7 7
48 33 93 58 l80 47 0 209 0 209 -32 17 c-18 9 -35 20 -38 23 -3 4 -17 12 -32
18 l-28 13 -1 -173z"/>
<path d="M1807 2102 l-187 -107 0 -210 0 -210 65 -37 65 -37 2 216 3 216 177
101 c193 110 188 103 107 149 l-46 26 -186 -107z"/>
<path d="M1873 1920 l-63 -35 0 -219 c0 -121 3 -217 6 -213 6 6 315 -170 326
-186 8 -13 68 -13 76 0 4 6 22 18 40 27 18 10 32 22 30 27 -2 5 -80 54 -173
107 l-170 98 -5 215 -5 215 -62 -36z"/>
<path d="M2002 1640 l3 -72 180 -105 180 -105 34 19 c19 10 39 17 43 15 4 -1
8 2 8 7 0 5 65 46 145 91 l145 82 0 69 0 70 -29 -16 c-16 -8 -80 -44 -143 -81
-62 -36 -117 -66 -123 -67 -5 -1 -18 -9 -28 -18 -40 -35 -93 -13 -385 163
l-33 20 3 -72z"/>
<path d="M1309 1075 c5 -5 11 -28 15 -50 10 -52 10 -52 53 -242 l37 -163 56 0
57 0 47 218 c26 119 50 224 55 232 7 12 -1 15 -45 15 -28 0 -50 -3 -48 -6 3
-6 -43 -298 -52 -328 -6 -18 -33 4 -32 27 0 9 -5 42 -11 72 -6 30 -13 75 -17
100 -19 139 -17 135 -73 135 -32 0 -46 -4 -42 -10z"/>
<path d="M1708 853 l3 -233 118 0 119 0 4 33 3 32 -77 -3 -78 -4 0 76 0 76 63
0 c62 0 63 0 61 28 -1 26 -3 27 -62 30 l-62 3 0 64 0 65 70 0 70 0 0 29 0 30
-117 3 -118 3 3 -232z"/>
<path d="M3460 853 l0 -233 40 0 40 0 0 140 c0 112 3 138 13 134 13 -5 60
-123 60 -151 0 -7 4 -13 8 -13 4 0 11 -15 15 -32 11 -47 11 -47 14 -55 1 -5 2
-11 1 -15 0 -5 19 -8 44 -8 l45 0 0 230 0 230 -40 0 -40 0 0 -135 c0 -162 -12
-174 -53 -56 -16 43 -30 85 -31 92 -2 8 -11 33 -21 56 -15 37 -21 42 -56 45
l-39 4 0 -233z"/>
<path d="M760 850 l0 -230 45 0 45 0 0 230 0 230 -45 0 -45 0 0 -230z"/>
<path d="M950 850 l0 -230 40 0 40 0 0 140 c0 108 3 140 13 140 12 0 50 -88
50 -117 0 -7 3 -13 7 -13 8 0 36 -90 32 -102 -1 -5 2 -8 7 -8 5 0 11 -9 14
-20 4 -15 14 -20 41 -20 l36 0 0 230 0 230 -35 0 c-44 0 -50 -19 -42 -149 6
-96 1 -126 -19 -113 -12 8 -87 212 -78 212 4 0 1 7 -6 15 -7 8 -9 15 -4 15 5
0 2 5 -6 10 -8 5 -32 10 -52 10 l-38 0 0 -230z"/>
<path d="M2030 850 l0 -230 45 0 45 0 0 100 0 100 65 0 c63 0 65 1 65 25 0 24
-2 25 -66 25 l-65 0 2 75 2 75 76 0 76 0 0 30 0 30 -122 0 -123 0 0 -230z"/>
<path d="M2426 1063 c-18 -63 -29 -109 -28 -114 1 -4 -3 -22 -9 -40 -6 -19
-12 -45 -14 -59 -2 -14 -13 -65 -24 -113 -28 -118 -28 -117 18 -117 39 0 40 0
47 45 l6 46 66 -3 66 -3 9 -42 c8 -42 9 -43 47 -43 40 0 53 13 40 40 -8 15
-58 223 -65 270 -3 14 -12 53 -21 88 l-16 62 -59 0 c-46 0 -59 -3 -63 -17z
m75 -95 c0 -7 2 -22 4 -33 2 -11 6 -39 10 -63 3 -24 10 -55 16 -68 5 -14 9
-27 9 -30 0 -2 -22 -4 -50 -4 -34 0 -50 4 -50 13 1 13 16 84 27 127 3 14 6 35
6 48 -1 23 26 32 28 10z"/>
<path d="M2750 1060 c-19 -19 -21 -32 -20 -215 l2 -193 34 -17 c33 -16 149
-18 194 -5 21 7 40 55 40 101 l0 39 -45 0 c-48 0 -51 -4 -45 -67 1 -21 -3 -23
-44 -23 l-46 0 0 176 0 175 43 -3 c44 -3 44 -3 46 -65 1 -32 2 -33 47 -33 l45
0 -2 58 c-3 79 -23 92 -141 92 -75 0 -91 -3 -108 -20z"/>
<path d="M3110 1062 c-22 -18 -23 -22 -21 -207 3 -234 0 -229 117 -234 92 -3
137 13 148 51 3 13 6 98 6 189 0 153 -2 168 -21 193 -19 25 -25 26 -114 26
-75 0 -97 -4 -115 -18z m158 -209 l-3 -168 -45 0 -45 0 -3 155 c-1 85 0 160 2
167 3 8 23 13 51 13 l45 0 -2 -167z"/>
<path d="M860 505 c0 -30 5 -55 10 -55 6 0 10 25 10 55 0 30 -4 55 -10 55 -5
0 -10 -25 -10 -55z"/>
<path d="M1485 550 c3 -5 8 -10 11 -10 2 0 4 5 4 10 0 6 -5 10 -11 10 -5 0 -7
-4 -4 -10z"/>
<path d="M1810 545 c0 -8 -5 -15 -11 -15 -8 0 -8 -4 -1 -12 6 -7 12 -26 15
-43 4 -27 4 -27 6 8 0 22 6 37 14 37 8 0 7 4 -3 10 -13 9 -13 11 0 20 13 8 12
10 -2 10 -10 0 -18 -7 -18 -15z"/>
<path d="M2430 549 c0 -5 5 -7 10 -4 6 3 10 8 10 11 0 2 -4 4 -10 4 -5 0 -10
-5 -10 -11z"/>
<path d="M2505 550 c-3 -6 1 -7 9 -4 18 7 21 14 7 14 -6 0 -13 -4 -16 -10z"/>
<path d="M3260 504 l0 -55 33 3 c29 3 32 6 32 38 0 27 -5 36 -20 38 -16 3 -18
1 -7 -9 18 -19 15 -59 -4 -59 -11 0 -15 8 -14 28 4 49 0 72 -10 72 -5 0 -10
-25 -10 -56z"/>
<path d="M3360 549 c0 -5 5 -7 10 -4 6 3 10 8 10 11 0 2 -4 4 -10 4 -5 0 -10
-5 -10 -11z"/>
<path d="M3400 505 c0 -30 5 -55 10 -55 6 0 10 25 10 55 0 30 -4 55 -10 55 -5
0 -10 -25 -10 -55z"/>
<path d="M3450 549 c0 -5 5 -7 10 -4 6 3 10 8 10 11 0 2 -4 4 -10 4 -5 0 -10
-5 -10 -11z"/>
<path d="M3550 539 c0 -15 -5 -19 -19 -14 -23 7 -44 -17 -39 -47 2 -18 10 -24
36 -26 l32 -3 0 55 c0 31 -2 56 -5 56 -3 0 -5 -9 -5 -21z m-10 -55 c0 -31 -23
-28 -28 4 -2 15 2 22 12 22 11 0 16 -9 16 -26z"/>
<path d="M3730 542 c0 -13 -7 -18 -22 -18 -20 1 -23 -4 -23 -34 0 -32 3 -35
33 -38 l32 -3 0 55 c0 31 -4 56 -10 56 -5 0 -10 -8 -10 -18z m0 -51 c0 -11 -5
-23 -11 -27 -15 -9 -33 12 -26 30 9 23 37 20 37 -3z"/>
<path d="M1278 539 c-7 -21 5 -89 16 -89 9 0 12 35 7 93 -1 11 -19 8 -23 -4z"/>
<path d="M2038 538 c-2 -7 -2 -29 2 -48 3 -25 11 -35 25 -37 11 -2 14 0 8 3
-16 7 -17 64 -2 64 6 0 4 7 -5 15 -18 18 -23 19 -28 3z"/>
<path d="M3112 533 c-8 -8 -9 -13 -2 -13 5 0 10 -16 10 -35 0 -25 5 -35 15
-35 13 0 13 3 3 20 -10 15 -10 25 -2 38 15 24 -6 45 -24 25z"/>
<path d="M910 489 c0 -47 17 -52 22 -6 2 17 8 32 13 32 6 0 11 -15 13 -32 2
-18 8 -33 13 -33 6 0 9 17 7 38 -3 34 -6 37 -35 39 -32 1 -33 0 -33 -38z"/>
<path d="M1004 514 c3 -9 9 -27 12 -40 3 -13 12 -24 19 -24 7 0 16 11 19 24 3
13 9 31 12 40 3 9 2 16 -3 16 -6 0 -15 -15 -20 -32 l-11 -33 -7 33 c-4 17 -12
32 -17 32 -6 0 -7 -7 -4 -16z"/>
<path d="M1102 521 c-8 -5 -12 -21 -10 -37 2 -23 9 -30 31 -32 15 -2 27 1 27
6 0 6 -8 8 -19 5 -10 -3 -22 0 -25 6 -5 7 4 11 23 11 32 0 41 16 19 38 -14 14
-28 15 -46 3z m38 -21 c0 -5 -7 -10 -15 -10 -8 0 -15 5 -15 10 0 6 7 10 15 10
8 0 15 -4 15 -10z"/>
<path d="M1180 489 c0 -47 17 -52 22 -6 2 17 8 32 13 32 6 0 11 -15 13 -32 2
-18 8 -33 13 -33 6 0 9 17 7 38 -3 34 -6 37 -35 39 -32 1 -33 0 -33 -38z"/>
<path d="M1340 519 c-12 -9 -11 -10 7 -6 32 7 40 -11 8 -19 -16 -4 -25 -13
-25 -25 0 -15 7 -19 35 -19 32 0 35 3 35 28 0 45 -28 64 -60 41z m35 -49 c-3
-5 -10 -10 -16 -10 -5 0 -9 5 -9 10 0 6 7 10 16 10 8 0 12 -4 9 -10z"/>
<path d="M1420 489 c0 -22 5 -39 10 -39 6 0 10 14 10 30 0 20 5 30 15 30 8 0
15 4 15 9 0 5 -11 9 -25 9 -22 0 -25 -5 -25 -39z"/>
<path d="M1493 490 c0 -25 2 -35 4 -22 2 12 2 32 0 45 -2 12 -4 2 -4 -23z"/>
<path d="M1540 516 c-6 -8 -10 -25 -8 -38 2 -18 9 -23 33 -23 26 0 30 4 33 29
5 41 -32 62 -58 32z m40 -31 c0 -16 -6 -25 -15 -25 -9 0 -15 9 -15 25 0 16 6
25 15 25 9 0 15 -9 15 -25z"/>
<path d="M1632 518 c-14 -14 2 -38 24 -38 8 0 14 -5 14 -11 0 -7 -10 -9 -27
-4 -21 5 -25 4 -17 -5 14 -14 56 -9 62 7 2 7 -8 17 -23 23 -31 12 -25 31 7 22
14 -3 19 -2 14 6 -9 15 -39 15 -54 0z"/>
<path d="M1865 520 c-5 -9 -1 -10 13 -6 11 4 23 2 27 -3 3 -6 -6 -13 -20 -17
-38 -9 -34 -44 6 -44 29 0 30 2 27 38 -2 29 -8 38 -25 40 -11 2 -24 -2 -28 -8z
m36 -53 c-13 -13 -26 -3 -16 12 3 6 11 8 17 5 6 -4 6 -10 -1 -17z"/>
<path d="M1962 521 c-8 -5 -12 -21 -10 -37 2 -22 9 -30 27 -32 13 -2 28 2 35
8 8 9 5 10 -15 5 -20 -5 -28 -2 -33 11 -8 22 13 49 28 34 16 -16 30 -12 16 5
-14 17 -29 19 -48 6z"/>
<path d="M2101 493 c-1 -41 0 -43 29 -43 29 0 30 2 29 43 l-2 42 -6 -35 c-4
-22 -12 -35 -21 -35 -9 0 -17 13 -21 35 l-6 35 -2 -42z"/>
<path d="M2190 489 c0 -21 5 -39 10 -39 6 0 10 14 10 30 0 17 5 30 10 30 19 0
10 16 -10 17 -17 2 -20 -4 -20 -38z"/>
<path d="M2255 520 c-5 -9 -1 -10 13 -6 11 4 23 3 26 -3 3 -5 -5 -12 -19 -15
-16 -4 -25 -13 -25 -26 0 -16 7 -20 33 -20 33 0 34 0 28 38 -5 28 -12 38 -28
40 -11 2 -24 -2 -28 -8z m40 -50 c-3 -5 -10 -10 -16 -10 -5 0 -9 5 -9 10 0 6
7 10 16 10 8 0 12 -4 9 -10z"/>
<path d="M2352 521 c-8 -5 -12 -21 -10 -37 2 -22 9 -30 27 -32 13 -2 28 2 35
8 8 9 5 10 -15 5 -20 -5 -28 -2 -33 11 -8 22 13 49 28 34 16 -16 30 -12 16 5
-14 17 -29 19 -48 6z"/>
<path d="M2430 490 c0 -22 5 -40 10 -40 6 0 10 18 10 40 0 22 -4 40 -10 40 -5
0 -10 -18 -10 -40z"/>
<path d="M2480 515 c-7 -8 -10 -25 -6 -40 5 -20 13 -25 36 -25 33 0 47 27 30
60 -13 24 -42 26 -60 5z m45 -30 c0 -28 -29 -25 -33 3 -3 19 0 23 15 20 10 -2
18 -12 18 -23z"/>
<path d="M2570 489 c0 -47 17 -52 22 -6 2 17 8 32 13 32 6 0 11 -15 13 -32 2
-18 8 -33 13 -33 6 0 9 17 7 38 -3 34 -6 37 -35 39 -32 1 -33 0 -33 -38z"/>
<path d="M2705 513 c26 -64 28 -75 14 -84 -7 -4 -11 -10 -8 -13 10 -10 25 10
42 54 20 53 21 60 7 60 -5 0 -10 -9 -10 -19 0 -30 -17 -34 -24 -6 -4 14 -11
25 -17 25 -7 0 -8 -7 -4 -17z"/>
<path d="M2840 515 c-20 -24 -4 -65 25 -65 13 0 27 5 31 11 4 8 0 9 -15 4 -24
-7 -37 14 -27 41 5 13 9 14 21 4 17 -14 31 -8 20 9 -9 16 -41 13 -55 -4z"/>
<path d="M2930 516 c-20 -25 -8 -61 22 -64 32 -4 50 22 37 56 -9 25 -41 29
-59 8z m45 -31 c0 -28 -29 -25 -33 3 -3 19 0 23 15 20 10 -2 18 -12 18 -23z"/>
<path d="M3020 488 c0 -21 4 -38 9 -38 4 0 7 10 7 23 -2 25 12 49 25 41 5 -3
9 -18 9 -35 0 -16 5 -29 10 -29 12 0 13 49 2 67 -4 6 -19 10 -35 10 -24 -2
-27 -6 -27 -39z"/>
<path d="M3174 519 c-5 -9 -1 -11 14 -7 12 4 24 2 27 -3 3 -4 -6 -11 -20 -15
-16 -4 -25 -13 -25 -25 0 -15 7 -19 33 -19 33 0 34 0 28 38 -5 28 -12 38 -28
40 -11 2 -24 -2 -29 -9z m37 -52 c-13 -13 -26 -3 -16 12 3 6 11 8 17 5 6 -4 6
-10 -1 -17z"/>
<path d="M3363 490 c0 -25 2 -35 4 -22 2 12 2 32 0 45 -2 12 -4 2 -4 -23z"/>
<path d="M3450 490 c0 -22 5 -40 10 -40 6 0 10 18 10 40 0 22 -4 40 -10 40 -5
0 -10 -18 -10 -40z"/>
<path d="M3595 520 c-5 -9 -1 -10 14 -5 13 4 21 2 21 -5 0 -7 -9 -14 -20 -17
-11 -3 -20 -14 -20 -24 0 -15 7 -19 31 -19 29 0 30 2 27 38 -2 29 -8 38 -25
40 -11 2 -24 -2 -28 -8z m35 -50 c0 -5 -4 -10 -9 -10 -6 0 -13 5 -16 10 -3 6
1 10 9 10 9 0 16 -4 16 -10z"/>
<path d="M1713 440 c-1 -11 2 -18 8 -15 11 7 12 35 1 35 -4 0 -8 -9 -9 -20z"/>
</g>
</svg>
